<svg width="10" height="11" viewBox="0 0 10 11" fill="none" xmlns="http://www.w3.org/2000/svg">
<path d="M9.02276 5.55005C8.26757 4.71169 6.91125 4.72158 5.99988 5.57141C5.81009 5.7484 5.57077 5.84715 5.32807 5.84908C5.08487 5.85045 4.86391 5.75501 4.70686 5.58047C4.54931 5.40538 4.47518 5.17389 4.49807 4.92816C4.52106 4.68133 4.63889 4.44847 4.82868 4.27149C5.74005 3.42166 5.86241 2.04258 5.10018 1.19647C4.34498 0.358116 2.98867 0.368007 2.0773 1.21784C1.01383 2.20849 0.355201 3.53763 0.223613 4.95837C0.0918677 6.36008 0.510191 7.67614 1.39884 8.66298C2.28808 9.6493 3.5408 10.1873 4.92599 10.1775C6.32969 10.168 7.68879 9.61683 8.75176 8.62562C9.66372 7.77526 9.78558 6.39563 9.02276 5.55005Z" fill="#59D359"/>
</svg>
